Sinopse:

A trama narra as fantasias sexuais de uma mulher chamada Marta, que está entediada com sua vida de casada e acaba se apaixonando por um fotógrafo francês que ela conheceu no museu. O marido de Marta, Dário, está sempre em festas e reuniões e despreza a esposa, e ela, então, decide provocar ciúmes no marido e acaba se apaixonando por Léon, um fotógrafo que a assedia em um museu.

Format : Matroska
Format version : Version 2
File size : 2.09 GiB
Duration : 1h 38mn
Overall bit rate : 3 036 Kbps
Encoded date : UTC 2013-06-12 08:34:13
Writing application : mkvmerge v5.8.0 ('No Sleep / Pillow') built on Sep 2 2012 15:37:04
Writing library : libebml v1.2.3 + libmatroska v1.3.0

Video
ID : 1
Format : AVC
Format/Info : Advanced Video Codec
Format profile : High@L4.1
Format settings, CABAC : Yes
Format settings, ReFrames : 4 frames
Muxing mode : Header stripping
Codec ID : V_MPEG4/ISO/AVC
Duration : 1h 38mn
Bit rate : 2 528 Kbps
Width : 1 904 pixels
Height : 1 040 pixels
Display aspect ratio : 1.85:1
Frame rate mode : Constant
Frame rate : 23.976 fps
Color space : YUV
Chroma subsampling : 4:2:0
Bit depth : 8 bits
Scan type : Progressive
Bits/(Pixel*Frame) : 0.053
Stream size : 1.74 GiB (83%)
Title : Monamour ( Zagor Lukas )
Writing library : x264 core 133 r2334 a3ac64b
Encoding settings : cabac=1 / ref=3 / deblock=1:0:0 / analyse=0x3:0x113 / me=hex / subme=7 / psy=1 / psy_rd=1.00:0.00 / mixed_ref=1 / me_range=16 / chroma_me=1 / trellis=1 / 8x8dct=1 / cqm=0 / deadzone=21,11 / fast_pskip=1 / chroma_qp_offset=-2 / threads=3 / lookahead_threads=1 / sliced_threads=0 / nr=0 / decimate=1 / interlaced=0 / bluray_compat=0 / constrained_intra=0 / bframes=3 / b_pyramid=2 / b_adapt=1 / b_bias=0 / direct=1 / weightb=1 / open_gop=0 / weightp=2 / keyint=240 / keyint_min=23 / scenecut=40 / intra_refresh=0 / rc_lookahead=40 / rc=crf / mbtree=1 / crf=23.0 / qcomp=0.60 / qpmin=0 / qpmax=69 / qpstep=4 / vbv_maxrate=24000 / vbv_bufsize=24000 / crf_max=0.0 / nal_hrd=none / ip_ratio=1.40 / aq=1:1.00
Language : Italian
Default : Yes
Forced : No

Audio
ID : 2
Format : AC-3
Format/Info : Audio Coding 3
Mode extension : CM (complete main)
Format settings, Endianness : Big
Muxing mode : Header stripping
Codec ID : A_AC3
Duration : 1h 38mn
Bit rate mode : Constant
Bit rate : 448 Kbps
Channel(s) : 6 channels
Channel positions : Front: L C R, Side: L R, LFE
Sampling rate : 48.0 KHz
Bit depth : 16 bits
Compression mode : Lossy
Stream size : 315 MiB (15%)
Title : ita
Language : Italian
Default : Yes
Forced : No

Text #1
ID : 3
Format : VobSub
Muxing mode : zlib
Codec ID : S_VOBSUB
Codec ID/Info : The same subtitle format used on DVDs
Title : English
Language : English
Default : No
Forced : No

Text #2
ID : 4
Format : ASS
Codec ID : S_TEXT/ASS
Codec ID/Info : Advanced Sub Station Alpha
Compression mode : Lossless
Title : Credito
Language : Portuguese
Default : Yes
Forced : No

Menu
00:00:00.000 : en:00:00:00.000
00:07:04.549 : en:00:07:04.549
00:14:15.271 : en:00:14:15.271
00:21:39.507 : en:00:21:39.507
00:36:50.875 : en:00:36:50.875
00:45:15.087 : en:00:45:15.087
00:51:22.538 : en:00:51:22.538
01:00:48.186 : en:01:00:48.186
01:07:48.398 : en:01:07:48.398
01:10:44.699 : en:01:10:44.699
01:25:37.507 : en:01:25:37.507
01:33:19.385 : en:01:33:19.385
